<svg width="16" height="16" viewBox="0 0 16 16" fill="none" xmlns="http://www.w3.org/2000/svg">
<path d="M2.24698 15.0021L8.01092 9.23811L13.6875 14.9147C14.0472 15.2744 14.6423 15.2744 15.0021 14.9147C15.1331 14.7836 15.25 14.5465 15.25 14.3011C15.25 14.1649 15.214 14.0609 15.169 13.9709C15.1503 13.9334 15.129 13.8965 15.1109 13.8652L15.106 13.8567C15.0857 13.8216 15.0671 13.789 15.0489 13.7525C15.0369 13.7284 15.0211 13.7065 15.002 13.6875L14.9147 13.6001L14.9134 13.5988L9.23944 8.00959L14.9147 2.33434C15.2744 1.97462 15.2744 1.37951 14.9147 1.01979C14.555 0.660069 13.9599 0.66007 13.6001 1.01979L13.6001 1.01977L13.5975 1.02245L8.00958 6.77972L2.33565 1.02111L2.33565 1.0211L2.33434 1.01979C1.97462 0.66007 1.37951 0.66007 1.01979 1.01979C0.66007 1.37951 0.66007 1.97462 1.01979 2.33434L1.01979 2.33435L1.02111 2.33565L6.78242 8.01223L1.11878 13.6759C0.696999 14.0053 0.616471 14.6278 1.03533 14.9303C1.03809 14.933 1.04085 14.9358 1.04362 14.9386C1.19623 15.092 1.35347 15.25 1.63339 15.25C1.87875 15.25 2.11589 15.1331 2.24698 15.0021Z" fill="black" stroke="black" stroke-width="0.5" stroke-linejoin="round"/>
</svg>
