<svg width="42" height="42" viewBox="0 0 42 42" fill="none" xmlns="http://www.w3.org/2000/svg">
<circle opacity="0.4" cx="21" cy="21" r="21" fill="#EC1C41"/>
<circle opacity="0.4" cx="21" cy="21" r="14" fill="#EC1C41"/>
<path d="M20.9997 15.0498C22.1431 15.0498 22.4219 15.9901 22.3516 16.5286L21.6655 22.3645C21.6427 22.8923 21.2677 23.093 20.9995 23.093C20.6993 23.093 20.3598 22.9199 20.3335 22.3645L19.6474 16.5286C19.5774 15.9746 19.8632 15.0498 20.9996 15.0498H20.9997ZM21.9881 26.4996C21.7303 26.7846 21.369 26.9498 20.9997 26.9498C20.6299 26.9498 20.2688 26.7844 20.0083 26.4996C19.7481 26.2147 19.5996 25.8197 19.5996 25.4152C19.5996 25.0141 19.748 24.6191 20.0083 24.3341C20.2688 24.0492 20.63 23.8869 20.9997 23.8869C21.369 23.8869 21.7303 24.049 21.9881 24.3341C22.2511 24.6191 22.3996 25.0141 22.3996 25.4152C22.3996 25.8199 22.2513 26.2147 21.9881 26.4996Z" fill="white"/>
</svg>
