<svg width="71" height="71" viewBox="0 0 71 71" fill="none" xmlns="http://www.w3.org/2000/svg">
<path d="M0.699219 35.5002C0.699219 26.2707 4.36564 17.4191 10.8919 10.8929C17.4182 4.36661 26.2697 0.700195 35.4992 0.700195C44.7288 0.700195 53.5803 4.36661 60.1065 10.8929C66.6328 17.4191 70.2992 26.2707 70.2992 35.5002C70.2992 44.7297 66.6328 53.5812 60.1065 60.1075C53.5803 66.6338 44.7288 70.3002 35.4992 70.3002C26.2697 70.3002 17.4182 66.6338 10.8919 60.1075C4.36564 53.5812 0.699219 44.7297 0.699219 35.5002ZM24.6242 33.3252C25.7779 33.3252 26.8843 32.8669 27.7001 32.0511C28.5159 31.2353 28.9742 30.1289 28.9742 28.9752C28.9742 27.8215 28.5159 26.7151 27.7001 25.8993C26.8843 25.0835 25.7779 24.6252 24.6242 24.6252C23.4705 24.6252 22.3641 25.0835 21.5483 25.8993C20.7325 26.7151 20.2742 27.8215 20.2742 28.9752C20.2742 30.1289 20.7325 31.2353 21.5483 32.0511C22.3641 32.8669 23.4705 33.3252 24.6242 33.3252ZM50.7242 28.9752C50.7242 27.8215 50.2659 26.7151 49.4501 25.8993C48.6343 25.0835 47.5279 24.6252 46.3742 24.6252C45.2205 24.6252 44.1141 25.0835 43.2983 25.8993C42.4825 26.7151 42.0242 27.8215 42.0242 28.9752C42.0242 30.1289 42.4825 31.2353 43.2983 32.0511C44.1141 32.8669 45.2205 33.3252 46.3742 33.3252C47.5279 33.3252 48.6343 32.8669 49.4501 32.0511C50.2659 31.2353 50.7242 30.1289 50.7242 28.9752ZM50.9939 50.2467C52.6295 48.7242 51.2854 47.1321 51.2332 47.0712C50.9293 46.7277 50.6069 46.4009 50.2675 46.0924C49.3671 45.2836 48.3861 44.5694 47.3399 43.9609C44.7299 42.421 40.8236 40.9377 35.5079 40.9377C30.1922 40.9377 26.2816 42.4167 23.6672 43.9566C22.3622 44.7178 21.3965 45.4921 20.7353 46.0881C20.3944 46.3965 20.0706 46.7232 19.7653 47.0668L19.7044 47.1451L19.6826 47.1712L19.6739 47.1799L19.6696 47.1843L21.3617 48.5502L19.6652 47.1886C19.3194 47.6385 19.163 48.2056 19.2295 48.7691C19.296 49.3326 19.58 49.8478 20.021 50.2048C20.462 50.5618 21.0251 50.7323 21.5901 50.68C22.155 50.6277 22.6772 50.3567 23.0452 49.9248L23.0582 49.9117C23.2481 49.7031 23.4485 49.5042 23.6585 49.3158C24.124 48.8895 24.8548 48.3022 25.8683 47.7063C27.8824 46.5231 31.0448 45.2877 35.5079 45.2877C39.971 45.2877 43.1291 46.5231 45.1345 47.7063C46.148 48.3022 46.8745 48.8895 47.3399 49.3114C47.5485 49.4999 47.7474 49.6988 47.9359 49.9074L47.9489 49.9204C48.3109 50.3653 48.834 50.6492 49.4043 50.7103C49.9746 50.7714 50.5459 50.6048 50.9939 50.2467Z" fill="#26D07C"/>
</svg>
