<svg width="107" height="107" viewBox="0 0 107 107" fill="none" xmlns="http://www.w3.org/2000/svg">
<path d="M107 28.323C107 35.8347 104.016 43.0388 98.7042 48.3503C93.3925 53.6619 86.1883 56.646 78.6765 56.646C71.1646 56.646 63.9604 53.6619 58.6487 48.3503C53.337 43.0388 50.3529 35.8347 50.3529 28.323C50.3529 20.8113 53.337 13.6072 58.6487 8.29561C63.9604 2.98402 71.1646 0 78.6765 0C86.1883 0 93.3925 2.98402 98.7042 8.29561C104.016 13.6072 107 20.8113 107 28.323ZM78.6765 12.588C77.8418 12.588 77.0413 12.9195 76.4512 13.5097C75.861 14.0999 75.5294 14.9004 75.5294 15.735V28.323C75.5294 29.1576 75.861 29.9581 76.4512 30.5482C77.0413 31.1384 77.8418 31.47 78.6765 31.47C79.5111 31.47 80.3116 31.1384 80.9018 30.5482C81.492 29.9581 81.8235 29.1576 81.8235 28.323V15.735C81.8235 14.9004 81.492 14.0999 80.9018 13.5097C80.3116 12.9195 79.5111 12.588 78.6765 12.588ZM78.6765 44.8447C79.7198 44.8447 80.7204 44.4303 81.4581 43.6925C82.1958 42.9548 82.6103 41.9543 82.6103 40.911C82.6103 39.8677 82.1958 38.8671 81.4581 38.1294C80.7204 37.3917 79.7198 36.9772 78.6765 36.9772C77.6332 36.9772 76.6326 37.3917 75.8948 38.1294C75.1571 38.8671 74.7426 39.8677 74.7426 40.911C74.7426 41.9543 75.1571 42.9548 75.8948 43.6925C76.6326 44.4303 77.6332 44.8447 78.6765 44.8447ZM100.706 55.0284C94.566 60.0985 86.8658 62.897 78.9032 62.9522C70.9406 63.0074 63.2024 60.3158 56.9929 55.3313C50.7833 50.3467 46.482 43.3738 44.8138 35.5879C43.1457 27.8019 44.2128 19.679 47.8353 12.588H16.3647C7.32635 12.588 0 19.8198 0 28.7384V70.9711C0 79.896 7.32635 87.1215 16.3647 87.1215H20.1412V100.786C20.1412 102.126 20.5818 103.429 21.4 104.505C23.4771 107.256 27.4235 107.816 30.2055 105.764L55.4512 87.1215H84.3412C93.3795 87.1215 100.706 79.8897 100.706 70.9711V55.0284Z" fill="#FF3636"/>
</svg>
