<svg width="12" height="8" viewBox="0 0 12 8" fill="none" xmlns="http://www.w3.org/2000/svg">
<g clip-path="url(#clip0_2_53)">
<path d="M5.38525 0.169347L0.350178 5.3967C0.256029 5.5086 0.206247 5.65338 0.210866 5.80186C0.215487 5.95034 0.274165 6.09148 0.375075 6.19684C0.475985 6.30219 0.611626 6.36394 0.754658 6.36962C0.897689 6.3753 1.03748 6.3245 1.14586 6.22746L5.7815 1.41466L10.4227 6.22664C10.4738 6.28734 10.5363 6.33648 10.6065 6.371C10.6767 6.40552 10.753 6.42468 10.8306 6.42728C10.9082 6.42988 10.9854 6.41587 11.0576 6.38612C11.1298 6.35638 11.1953 6.31153 11.2501 6.25437C11.3048 6.19721 11.3476 6.12897 11.3758 6.05389C11.4041 5.97882 11.4171 5.8985 11.4142 5.81798C11.4112 5.73744 11.3922 5.6584 11.3586 5.58578C11.3249 5.51317 11.2772 5.44852 11.2184 5.39587L6.18331 0.168521C6.07659 0.0603406 5.9333 -0.000154067 5.78411 2.94684e-07C5.63494 0.000154656 5.49175 0.060946 5.38525 0.169347Z" fill="#0D0D51"/>
</g>
<defs>
<clipPath id="clip0_2_53">
<rect width="12" height="7.2" fill="white"/>
</clipPath>
</defs>
</svg>
