<svg width="42" height="42" viewBox="0 0 42 42" fill="none" xmlns="http://www.w3.org/2000/svg">
<path fill-rule="evenodd" clip-rule="evenodd" d="M2.92579 20.8542C2.92579 16.0776 4.82332 11.4965 8.20094 8.1189C11.5786 4.74129 16.1596 2.84376 20.9363 2.84376C25.7129 2.84376 30.294 4.74129 33.6716 8.1189C37.0492 11.4965 38.9467 16.0776 38.9467 20.8542C38.9467 25.6309 37.0492 30.2119 33.6716 33.5896C30.294 36.9672 25.7129 38.8647 20.9363 38.8647C16.1596 38.8647 11.5786 36.9672 8.20094 33.5896C4.82332 30.2119 2.92579 25.6309 2.92579 20.8542ZM20.9363 0C9.41904 0 0.0820312 9.33701 0.0820312 20.8542C0.0820312 32.3715 9.41904 41.7085 20.9363 41.7085C32.4535 41.7085 41.7905 32.3715 41.7905 20.8542C41.7905 9.33701 32.4535 0 20.9363 0ZM32.7853 22.2761C33.1624 22.2761 33.524 22.1263 33.7907 21.8597C34.0573 21.593 34.2071 21.2313 34.2071 20.8542C34.2071 20.4771 34.0573 20.1155 33.7907 19.8488C33.524 19.5822 33.1624 19.4324 32.7853 19.4324H9.08727C8.71016 19.4324 8.3485 19.5822 8.08185 19.8488C7.81519 20.1155 7.66539 20.4771 7.66539 20.8542C7.66539 21.2313 7.81519 21.593 8.08185 21.8597C8.3485 22.1263 8.71016 22.2761 9.08727 22.2761H32.7853Z" fill="#A9A9A9"/>
</svg>