<svg width="27" height="27" viewBox="0 0 27 27" fill="none" xmlns="http://www.w3.org/2000/svg">
<circle cx="13.5" cy="13.5" r="13.5" fill="#707070"/>
<path d="M15.385 7.61266C16.2761 8.50486 16.8339 9.676 16.9649 10.9302C17.096 12.1843 16.7924 13.4455 16.105 14.5027C16.225 14.6027 16.325 14.7127 16.465 14.8127C16.665 14.9727 16.935 15.1727 17.275 15.4027C17.615 15.6427 17.835 15.7927 17.935 15.8727C18.355 16.1827 18.665 16.4427 18.875 16.6527C19.195 16.9727 19.475 17.3027 19.715 17.6527C19.965 18.0027 20.155 18.3427 20.305 18.6927C20.445 19.0427 20.515 19.3727 20.485 19.6927C20.465 20.0127 20.345 20.2827 20.125 20.5027C19.905 20.7227 19.635 20.8427 19.315 20.8627C19.005 20.8827 18.665 20.8227 18.325 20.6727C17.975 20.5327 17.625 20.3327 17.285 20.0827C16.935 19.8427 16.605 19.5627 16.285 19.2427C16.075 19.0327 15.815 18.7227 15.515 18.3127C15.415 18.1827 15.265 17.9627 15.045 17.6527C14.825 17.3327 14.645 17.0827 14.485 16.8727C14.325 16.6727 14.195 16.5227 14.045 16.3727C13.007 16.9161 11.8227 17.1142 10.6644 16.9379C9.50612 16.7616 8.4343 16.2203 7.605 15.3927C5.465 13.2427 5.465 9.75266 7.605 7.61266C8.11562 7.10142 8.72201 6.69585 9.38949 6.41914C10.057 6.14243 10.7724 6 11.495 6C12.2176 6 12.933 6.14243 13.6005 6.41914C14.268 6.69585 14.8744 7.10142 15.385 7.61266ZM13.975 13.9727C14.6283 13.3146 14.9949 12.4249 14.9949 11.4977C14.9949 10.5704 14.6283 9.68072 13.975 9.02266C13.6503 8.69702 13.2646 8.43865 12.8399 8.26236C12.4152 8.08607 11.9598 7.99533 11.5 7.99533C11.0402 7.99533 10.5848 8.08607 10.1601 8.26236C9.73542 8.43865 9.34967 8.69702 9.025 9.02266C8.69936 9.34733 8.44099 9.73307 8.2647 10.1578C8.08842 10.5825 7.99767 11.0378 7.99767 11.4977C7.99767 11.9575 8.08842 12.4128 8.2647 12.8375C8.44099 13.2622 8.69936 13.648 9.025 13.9727C9.34967 14.2983 9.73542 14.5567 10.1601 14.733C10.5848 14.9092 11.0402 15 11.5 15C11.9598 15 12.4152 14.9092 12.8399 14.733C13.2646 14.5567 13.6503 14.2983 13.975 13.9727Z" fill="white"/>
</svg>
