<svg width="16" height="17" viewBox="0 0 16 17" fill="none" xmlns="http://www.w3.org/2000/svg">
<path d="M7.37981 16.5658C5.79603 16.4868 4.27438 15.9249 3.01936 14.9557C1.76433 13.9864 0.836064 12.6562 0.359317 11.1438C-0.11743 9.63144 -0.119815 8.00937 0.352484 6.4956C0.824783 4.98182 1.74913 3.64889 3.0013 2.67594C3.1557 2.56093 3.33906 2.49115 3.53086 2.47443C3.72266 2.45771 3.91534 2.49469 4.08731 2.58124C4.25929 2.66779 4.40378 2.8005 4.50462 2.96451C4.60546 3.12851 4.65867 3.31735 4.65829 3.50988C4.66048 3.66495 4.62703 3.81846 4.56052 3.95857C4.494 4.09867 4.3962 4.22163 4.27465 4.31796C3.33235 5.04754 2.64176 6.0535 2.29953 7.19504C1.95731 8.33658 1.98059 9.55655 2.36611 10.6842C2.75163 11.8119 3.48009 12.7907 4.44954 13.4838C5.41899 14.177 6.58089 14.5496 7.77263 14.5496C8.96436 14.5496 10.1263 14.177 11.0957 13.4838C12.0652 12.7907 12.7936 11.8119 13.1791 10.6842C13.5647 9.55655 13.5879 8.33658 13.2457 7.19504C12.9035 6.0535 12.2129 5.04754 11.2706 4.31796C11.1488 4.2216 11.0507 4.09871 10.9836 3.95868C10.9166 3.81864 10.8823 3.66514 10.8836 3.50988C10.8835 3.31769 10.9368 3.12926 11.0375 2.9656C11.1382 2.80193 11.2825 2.66947 11.4541 2.58299C11.6257 2.49651 11.818 2.4594 12.0095 2.47582C12.2009 2.49223 12.3841 2.56151 12.5385 2.67594C13.8167 3.67076 14.7521 5.04022 15.2136 6.59279C15.6752 8.14536 15.64 9.80338 15.1128 11.3349C14.5857 12.8665 13.5931 14.195 12.2737 15.1346C10.9544 16.0742 9.37433 16.5779 7.7546 16.5753C7.63148 16.5753 7.50564 16.5719 7.37981 16.5658ZM6.73429 5.69879V1.03732C6.73429 0.762204 6.84358 0.498358 7.03811 0.303823C7.23265 0.109289 7.49649 0 7.77161 0C8.04672 0 8.31056 0.109289 8.5051 0.303823C8.69963 0.498358 8.80892 0.762204 8.80892 1.03732V5.69879C8.80892 5.9739 8.69963 6.23775 8.5051 6.43228C8.31056 6.62682 8.04672 6.7361 7.77161 6.7361C7.49649 6.7361 7.23265 6.62682 7.03811 6.43228C6.84358 6.23775 6.73429 5.9739 6.73429 5.69879Z" fill="#26D07E"/>
</svg>
